<svg width="128" height="128" viewBox="0 0 128 128" xmlns="http://www.w3.org/2000/svg">
  <rect width="128" height="128" rx="20" fill="#0a66c2"/>
  
  <!-- LinkedIn-style professional network icon -->
  <g fill="white">
    <!-- Person 1 -->
    <rect x="20" y="52" width="16" height="48"/>
    <circle cx="28" cy="38" r="8"/>
    
    <!-- Person 2 -->
    <rect x="64" y="52" width="16" height="48"/>
    <path d="M64 52h16v5c2.5-3.5 6.5-5 12-5 12 0 20 8 20 20v28H96V72c0-4-2-7-7-7s-7 3-7 7v28H64V52z"/>
    <circle cx="72" cy="38" r="8"/>
  </g>
  
  <!-- Filter indicator (much larger) -->
  <circle cx="96" cy="32" r="16" fill="#dc3545"/>
  <g fill="white">
    <!-- Filter lines -->
    <rect x="88" y="26" width="16" height="3" rx="1.5"/>
    <rect x="90" y="30" width="12" height="3" rx="1.5"/>
    <rect x="92" y="34" width="8" height="3" rx="1.5"/>
    <rect x="94" y="38" width="4" height="3" rx="1.5"/>
  </g>
</svg>
